<?xml version="1.0" standalone="no"?>
<!DOCTYPE svg PUBLIC "-//W3C//DTD SVG 20010904//EN"
 "http://www.w3.org/TR/2001/REC-SVG-20010904/DTD/svg10.dtd">
<svg version="1.0" xmlns="http://www.w3.org/2000/svg"
 width="700.000000pt" height="700.000000pt" viewBox="0 0 700.000000 700.000000"
 preserveAspectRatio="xMidYMid meet">
<metadata>
Created by potrace 1.11, written by Peter Selinger 2001-2013
</metadata>
<g transform="translate(0.000000,700.000000) scale(0.100000,-0.100000)"
fill="#000000" stroke="none">
<path d="M3215 6989 c-748 -64 -1435 -351 -1995 -835 -551 -475 -938 -1101
-1114 -1799 -34 -137 -72 -346 -88 -490 -17 -155 -17 -575 0 -730 63 -570 255
-1100 567 -1570 270 -405 644 -771 1047 -1024 457 -287 944 -456 1503 -523
139 -16 595 -16 730 0 847 103 1555 446 2131 1034 204 208 346 389 490 623
269 439 429 910 496 1460 16 130 16 600 0 730 -73 596 -246 1079 -557 1555
-139 213 -239 336 -449 548 -657 668 -1554 1038 -2496 1031 -91 -1 -210 -6
-265 -10z m665 -532 c676 -181 1243 -864 1785 -2152 96 -228 170 -426 320
-847 49 -137 91 -248 95 -248 7 0 186 311 229 397 11 23 25 44 30 48 7 4 600
-301 617 -318 2 -2 -45 -91 -104 -198 -321 -578 -644 -1049 -988 -1439 -125
-141 -389 -401 -506 -498 -401 -332 -824 -550 -1249 -643 -315 -69 -688 -66
-1019 7 -836 186 -1681 825 -2455 1859 -200 267 -430 615 -558 846 l-37 66
307 162 c289 153 308 162 321 145 7 -11 55 -89 106 -174 105 -177 146 -240
155 -240 3 0 37 89 75 198 401 1153 986 2147 1551 2632 241 207 471 334 717
394 141 35 141 35 338 31 149 -3 189 -7 270 -28z"/>
<path d="M997 3119 c29 -50 248 -345 349 -471 553 -691 1159 -1168 1712 -1347
226 -74 307 -86 562 -86 211 1 232 2 344 29 435 102 808 334 1226 762 275 282
548 637 794 1037 l66 107 -2535 0 -2536 0 18 -31z"/>
</g>
</svg>
